<svg id="visual" viewBox="0 0 1350 1350" width="1350" height="1350" xmlns="http://www.w3.org/2000/svg" xmlns:xlink="http://www.w3.org/1999/xlink" version="1.1"><rect x="0" y="0" width="1350" height="1350" fill="#001220"></rect><path d="M0 1009L32.2 972.5C64.3 936 128.7 863 193 862.7C257.3 862.3 321.7 934.7 386 955.7C450.3 976.7 514.7 946.3 578.8 912C643 877.7 707 839.3 771.2 824C835.3 808.7 899.7 816.3 964 827C1028.3 837.7 1092.7 851.3 1157 869C1221.3 886.7 1285.7 908.3 1317.8 919.2L1350 930L1350 1351L1317.8 1351C1285.7 1351 1221.3 1351 1157 1351C1092.7 1351 1028.3 1351 964 1351C899.7 1351 835.3 1351 771.2 1351C707 1351 643 1351 578.8 1351C514.7 1351 450.3 1351 386 1351C321.7 1351 257.3 1351 193 1351C128.7 1351 64.3 1351 32.2 1351L0 1351Z" fill="#fa7268"></path><path d="M0 1026L32.2 1019.2C64.3 1012.3 128.7 998.7 193 991.7C257.3 984.7 321.7 984.3 386 969.3C450.3 954.3 514.7 924.7 578.8 909.8C643 895 707 895 771.2 901.3C835.3 907.7 899.7 920.3 964 932C1028.3 943.7 1092.7 954.3 1157 961.7C1221.3 969 1285.7 973 1317.8 975L1350 977L1350 1351L1317.8 1351C1285.7 1351 1221.3 1351 1157 1351C1092.7 1351 1028.3 1351 964 1351C899.7 1351 835.3 1351 771.2 1351C707 1351 643 1351 578.8 1351C514.7 1351 450.3 1351 386 1351C321.7 1351 257.3 1351 193 1351C128.7 1351 64.3 1351 32.2 1351L0 1351Z" fill="#ef5f67"></path><path d="M0 1017L32.2 1023.3C64.3 1029.7 128.7 1042.3 193 1055.3C257.3 1068.3 321.7 1081.7 386 1077.8C450.3 1074 514.7 1053 578.8 1044C643 1035 707 1038 771.2 1044.8C835.3 1051.7 899.7 1062.3 964 1057.2C1028.3 1052 1092.7 1031 1157 1037.2C1221.3 1043.3 1285.7 1076.7 1317.8 1093.3L1350 1110L1350 1351L1317.8 1351C1285.7 1351 1221.3 1351 1157 1351C1092.7 1351 1028.3 1351 964 1351C899.7 1351 835.3 1351 771.2 1351C707 1351 643 1351 578.8 1351C514.7 1351 450.3 1351 386 1351C321.7 1351 257.3 1351 193 1351C128.7 1351 64.3 1351 32.2 1351L0 1351Z" fill="#e34c67"></path><path d="M0 1113L32.2 1124.8C64.3 1136.7 128.7 1160.3 193 1172.7C257.3 1185 321.7 1186 386 1170.2C450.3 1154.3 514.7 1121.7 578.8 1124.5C643 1127.3 707 1165.7 771.2 1165C835.3 1164.3 899.7 1124.7 964 1118.3C1028.3 1112 1092.7 1139 1157 1143.5C1221.3 1148 1285.7 1130 1317.8 1121L1350 1112L1350 1351L1317.8 1351C1285.7 1351 1221.3 1351 1157 1351C1092.7 1351 1028.3 1351 964 1351C899.7 1351 835.3 1351 771.2 1351C707 1351 643 1351 578.8 1351C514.7 1351 450.3 1351 386 1351C321.7 1351 257.3 1351 193 1351C128.7 1351 64.3 1351 32.2 1351L0 1351Z" fill="#d53867"></path><path d="M0 1196L32.2 1204.8C64.3 1213.7 128.7 1231.3 193 1231.8C257.3 1232.3 321.7 1215.7 386 1214.2C450.3 1212.7 514.7 1226.3 578.8 1228.8C643 1231.3 707 1222.7 771.2 1213.3C835.3 1204 899.7 1194 964 1192.5C1028.3 1191 1092.7 1198 1157 1204.8C1221.3 1211.7 1285.7 1218.3 1317.8 1221.7L1350 1225L1350 1351L1317.8 1351C1285.7 1351 1221.3 1351 1157 1351C1092.7 1351 1028.3 1351 964 1351C899.7 1351 835.3 1351 771.2 1351C707 1351 643 1351 578.8 1351C514.7 1351 450.3 1351 386 1351C321.7 1351 257.3 1351 193 1351C128.7 1351 64.3 1351 32.2 1351L0 1351Z" fill="#c62368"></path></svg>